<svg width="33" height="32" viewBox="0 0 33 32" fill="none" xmlns="http://www.w3.org/2000/svg">
<g clip-path="url(#clip0_3110_456)">
<path d="M16.9753 32C25.8118 32 32.9753 24.8366 32.9753 16C32.9753 7.16344 25.8118 0 16.9753 0C8.13869 0 0.97525 7.16344 0.97525 16C0.97525 24.8366 8.13869 32 16.9753 32Z" fill="#0C413F"/>
<path d="M12.2789 8.75C12.9688 8.75 13.5986 8.81144 14.1682 8.93304C14.7378 9.05464 15.2242 9.25432 15.63 9.53208C16.0357 9.80984 16.3506 10.1785 16.5746 10.6393C16.7986 11.1001 16.91 11.6684 16.91 12.3455C16.91 13.0764 16.7436 13.6857 16.412 14.1734C16.0805 14.661 15.589 15.0604 14.94 15.3714C15.8335 15.6287 16.5004 16.0793 16.9407 16.7218C17.381 17.3644 17.6012 18.1401 17.6012 19.0476C17.6012 19.7785 17.4591 20.4121 17.1749 20.9471C16.8908 21.4822 16.508 21.9186 16.0268 22.2566C15.5455 22.5958 14.9976 22.8454 14.382 23.0079C13.7624 23.1705 13.1237 23.2524 12.4837 23.2511H5.45525V8.75H12.2789ZM11.8732 14.6188C12.4415 14.6188 12.9087 14.4831 13.2748 14.213C13.6408 13.9417 13.8239 13.5026 13.8226 12.8934C13.8226 12.5554 13.7612 12.2777 13.6396 12.0614C13.518 11.845 13.3554 11.6748 13.1519 11.5532C12.9484 11.4316 12.7154 11.3471 12.4517 11.2998C12.1804 11.2524 11.9052 11.2281 11.6287 11.2294H8.64501V14.6214L11.8732 14.6188ZM12.0562 20.7718C12.357 20.773 12.6565 20.7423 12.9496 20.6809C13.2338 20.6194 13.4847 20.5183 13.701 20.3762C13.9173 20.2342 14.0901 20.0409 14.2194 19.7977C14.3474 19.5545 14.4127 19.2422 14.4127 18.8633C14.4127 18.1196 14.2028 17.5871 13.7829 17.2697C13.3631 16.951 12.8076 16.7922 12.1176 16.7922H8.64501V20.773L12.0562 20.7718ZM21.6127 20.4671C22.0453 20.887 22.6687 21.0969 23.4815 21.0969C24.0639 21.0969 24.5644 20.951 24.9842 20.6604C25.404 20.3698 25.6613 20.0614 25.756 19.7362H28.2943C27.8885 20.9958 27.2652 21.8956 26.4255 22.437C25.5858 22.9785 24.5708 23.2498 23.3791 23.2498C22.5535 23.2498 21.8085 23.118 21.1455 22.8543C20.4824 22.5906 19.9205 22.2143 19.4597 21.7266C18.9989 21.239 18.6431 20.6578 18.3935 19.9807C18.1439 19.3036 18.0184 18.5586 18.0184 17.7471C18.0184 16.9625 18.1464 16.2316 18.4037 15.5545C18.661 14.8774 19.0271 14.2924 19.5007 13.7983C19.9743 13.3042 20.54 12.9151 21.1967 12.631C21.8533 12.3468 22.5816 12.2047 23.3804 12.2047C24.2738 12.2047 25.052 12.3775 25.7164 12.7231C26.3794 13.0687 26.9247 13.5321 27.3509 14.1145C27.7772 14.6969 28.0856 15.3599 28.2751 16.1049C28.4645 16.8498 28.5324 17.6281 28.4786 18.4409H20.9036C20.9432 19.3714 21.18 20.0486 21.6127 20.4671ZM24.8728 14.9439C24.5272 14.565 24.0024 14.3756 23.2984 14.3756C22.8376 14.3756 22.4549 14.4537 22.1516 14.6086C21.8469 14.7647 21.6037 14.9567 21.4207 15.1871C21.2376 15.4175 21.1096 15.6607 21.0354 15.918C20.9612 16.1753 20.9164 16.4057 20.9036 16.6079H25.5948C25.4578 15.8783 25.2172 15.3228 24.8728 14.9439ZM20.4095 9.486H26.2706V11.1116H20.4095V9.486Z" fill="white"/>
</g>
<defs>
<clipPath id="clip0_3110_456">
<rect width="32" height="32" fill="white" transform="translate(0.97525)"/>
</clipPath>
</defs>
</svg>
