<svg width="33" height="32" viewBox="0 0 33 32" fill="none" xmlns="http://www.w3.org/2000/svg">
<g clip-path="url(#clip0_3146_36)">
<path d="M32.9753 16.4356C32.9753 7.3584 25.8113 0 16.9749 0C8.13846 0 0.97525 7.3584 0.97525 16.4356C0.97525 23.6402 5.4883 29.7614 11.769 31.9806C12.1518 31.6966 12.5927 31.3465 12.5927 30.7571C12.5927 29.8534 12.5738 27.5279 12.5738 27.5279C12.5738 27.5279 11.8796 27.6494 10.888 27.6494C8.39039 27.6494 7.60101 26.0211 7.22521 25.1103C6.73605 23.9234 6.10202 23.3663 5.42811 22.9206C5.01453 22.6467 4.91935 22.3247 5.39802 22.2319C7.60871 21.8064 8.17345 24.7933 9.65004 25.2692C10.7039 25.6085 12.0588 25.4618 12.7327 25.0161C12.8216 24.1039 13.4654 23.3153 14.0014 22.8998C10.2463 22.531 8.02019 21.1989 6.86551 19.0574L6.74165 18.8173L6.45123 18.1372L6.36585 17.8935C6.00405 16.8066 5.8445 15.5615 5.8445 14.1712C5.8445 11.7026 6.59749 10.7709 7.60871 9.45464C6.83542 6.64025 7.88653 4.71654 7.88653 4.71654C7.88653 4.71654 9.51218 4.3722 12.5843 6.62012C14.2492 5.89118 18.6894 5.83008 20.7902 6.45837C22.0786 5.58781 24.4376 4.35207 25.3887 4.69857C25.6462 5.12198 26.2011 6.35773 25.726 9.07076C26.0486 9.66599 27.7281 10.9334 27.7344 14.5177C27.7071 15.8397 27.5728 16.9554 27.3229 17.8993L27.1844 18.3824C27.1844 18.3824 27.1053 18.6102 27.0185 18.8273L26.917 19.0674C25.8029 21.567 23.5181 22.5001 19.8259 22.8883C21.0226 23.6575 21.3655 24.6229 21.3655 27.2353C21.3655 29.8477 21.3312 30.1985 21.3396 30.7995C21.3466 31.3307 21.7602 31.7124 22.1318 32.0014C28.4391 29.7974 32.9767 23.6618 32.9767 16.4378L32.9753 16.4356Z" fill="#0C413F"/>
</g>
<defs>
<clipPath id="clip0_3146_36">
<rect width="32" height="32" fill="white" transform="translate(0.97525)"/>
</clipPath>
</defs>
</svg>
