<svg width="33" height="33" viewBox="0 0 33 33" fill="none" xmlns="http://www.w3.org/2000/svg">
<g clip-path="url(#clip0_1039_168)">
<path d="M16.7376 2.92404C21.0761 2.92404 21.5899 2.94307 23.2961 3.01918C24.8818 3.08895 25.7381 3.35535 26.3089 3.57735C27.0637 3.86912 27.6092 4.22432 28.1737 4.78883C28.7446 5.35968 29.0934 5.89882 29.3852 6.65362C29.6072 7.22447 29.8736 8.0871 29.9434 9.66646C30.0195 11.379 30.0385 11.8928 30.0385 16.2249C30.0385 20.5634 30.0195 21.0772 29.9434 22.7834C29.8736 24.3691 29.6072 25.2254 29.3852 25.7963C29.0934 26.5511 28.7382 27.0965 28.1737 27.661C27.6029 28.2319 27.0637 28.5808 26.3089 28.8725C25.7381 29.0945 24.8755 29.3609 23.2961 29.4307C21.5835 29.5068 21.0698 29.5258 16.7376 29.5258C12.3991 29.5258 11.8854 29.5068 10.1791 29.4307C8.59344 29.3609 7.73716 29.0945 7.16631 28.8725C6.41151 28.5808 5.86603 28.2256 5.30152 27.661C4.73066 27.0902 4.38181 26.5511 4.09004 25.7963C3.86804 25.2254 3.60164 24.3628 3.53187 22.7834C3.45575 21.0709 3.43673 20.5571 3.43673 16.2249C3.43673 11.8864 3.45575 11.3727 3.53187 9.66646C3.60164 8.08075 3.86804 7.22447 4.09004 6.65362C4.38181 5.89882 4.737 5.35334 5.30152 4.78883C5.87237 4.21798 6.41151 3.86912 7.16631 3.57735C7.73716 3.35535 8.59978 3.08895 10.1791 3.01918C11.8854 2.94307 12.3991 2.92404 16.7376 2.92404ZM16.7376 0C12.3294 0 11.7775 0.0190285 10.0459 0.0951423C8.3207 0.171256 7.13459 0.45034 6.10705 0.849938C5.03512 1.26856 4.12809 1.82039 3.22741 2.72741C2.32039 3.62809 1.76856 4.53512 1.34994 5.60071C0.95034 6.63459 0.671256 7.81436 0.595142 9.5396C0.519028 11.2775 0.5 11.8294 0.5 16.2376C0.5 20.6459 0.519028 21.1977 0.595142 22.9293C0.671256 24.6545 0.95034 25.8407 1.34994 26.8682C1.76856 27.9401 2.32039 28.8472 3.22741 29.7478C4.12809 30.6485 5.03512 31.2067 6.10071 31.619C7.13459 32.0186 8.31436 32.2976 10.0396 32.3738C11.7712 32.4499 12.323 32.4689 16.7313 32.4689C21.1395 32.4689 21.6914 32.4499 23.423 32.3738C25.1482 32.2976 26.3343 32.0186 27.3619 31.619C28.4274 31.2067 29.3345 30.6485 30.2351 29.7478C31.1358 28.8472 31.694 27.9401 32.1063 26.8745C32.5059 25.8407 32.785 24.6609 32.8611 22.9356C32.9372 21.2041 32.9562 20.6522 32.9562 16.244C32.9562 11.8357 32.9372 11.2839 32.8611 9.55229C32.785 7.82704 32.5059 6.64093 32.1063 5.6134C31.7067 4.53512 31.1549 3.62809 30.2478 2.72741C29.3472 1.82673 28.4401 1.26856 27.3745 0.856281C26.3407 0.456683 25.1609 0.177599 23.4356 0.101485C21.6977 0.0190285 21.1459 0 16.7376 0Z" fill="#093231"/>
<path d="M16.7376 7.89697C12.1327 7.89697 8.39677 11.6329 8.39677 16.2378C8.39677 20.8427 12.1327 24.5786 16.7376 24.5786C21.3425 24.5786 25.0784 20.8427 25.0784 16.2378C25.0784 11.6329 21.3425 7.89697 16.7376 7.89697ZM16.7376 21.6482C13.7501 21.6482 11.3272 19.2253 11.3272 16.2378C11.3272 13.2503 13.7501 10.8274 16.7376 10.8274C19.7251 10.8274 22.148 13.2503 22.148 16.2378C22.148 19.2253 19.7251 21.6482 16.7376 21.6482Z" fill="#093231"/>
<path d="M27.3555 7.56688C27.3555 8.64516 26.4802 9.51413 25.4082 9.51413C24.3299 9.51413 23.461 8.63882 23.461 7.56688C23.461 6.4886 24.3363 5.61963 25.4082 5.61963C26.4802 5.61963 27.3555 6.49494 27.3555 7.56688Z" fill="#093231"/>
</g>
<defs>
<clipPath id="clip0_1039_168">
<rect width="32.4752" height="32.4752" fill="white" transform="translate(0.5)"/>
</clipPath>
</defs>
</svg>
