<svg width="65" height="65" viewBox="0 0 65 65" fill="none" xmlns="http://www.w3.org/2000/svg">
    <rect width="65" height="65" rx="32.5" fill="#019A6C"/>
    <path d="M4.012 38.096C3.644 37.968 3.324 37.776 3.052 37.52C2.796 37.248 2.628 36.928 2.548 36.56C2.836 36.288 3.172 35.944 3.556 35.528C3.94 35.112 4.316 34.616 4.684 34.04C5.052 33.448 5.356 32.784 5.596 32.048C5.852 31.312 5.98 30.488 5.98 29.576V26.672C6.124 26.624 6.292 26.584 6.484 26.552C6.676 26.52 6.876 26.504 7.084 26.504C7.452 26.504 7.812 26.56 8.164 26.672V32.216C8.164 34.872 9.132 36.2 11.068 36.2C12.204 36.2 13.036 35.744 13.564 34.832C14.108 33.904 14.38 32.64 14.38 31.04V26.672C14.716 26.56 15.076 26.504 15.46 26.504C15.86 26.504 16.228 26.56 16.564 26.672V44.72C16.564 48.464 15.196 50.336 12.46 50.336C11.196 50.336 10.204 49.96 9.484 49.208C8.78 48.456 8.428 47.424 8.428 46.112C8.428 43.184 10.428 40.44 14.428 37.88V36.752C13.516 37.808 12.3 38.336 10.78 38.336C8.572 38.336 7.116 37.344 6.412 35.36C5.676 36.576 4.876 37.488 4.012 38.096ZM10.588 46.064C10.588 46.752 10.748 47.288 11.068 47.672C11.388 48.072 11.828 48.272 12.388 48.272C13.748 48.272 14.428 47.088 14.428 44.72V40.424C11.868 42.232 10.588 44.112 10.588 46.064ZM16.7288 39.152C16.4888 39.344 16.2808 39.44 16.1048 39.44C15.8328 39.44 15.5848 39.296 15.3608 39.008C15.1368 38.736 15.0248 38.472 15.0248 38.216C15.0248 38.056 15.0648 37.928 15.1448 37.832C15.2088 37.736 15.3128 37.632 15.4568 37.52L19.9928 34.112C19.8328 33.536 19.7528 32.936 19.7528 32.312C19.7528 31.16 20.0008 30.136 20.4968 29.24C20.9928 28.344 21.6648 27.64 22.5128 27.128C23.3768 26.6 24.3448 26.336 25.4168 26.336C26.4888 26.336 27.4488 26.6 28.2968 27.128C29.1448 27.64 29.8088 28.344 30.2888 29.24C30.7848 30.136 31.0328 31.16 31.0328 32.312C31.0328 33.464 30.7848 34.496 30.2888 35.408C29.8088 36.32 29.1448 37.04 28.2968 37.568C27.4648 38.08 26.5048 38.336 25.4168 38.336C24.4568 38.336 23.5848 38.136 22.8008 37.736C22.0328 37.32 21.3928 36.76 20.8808 36.056L16.7288 39.152ZM25.3928 36.272C26.4168 36.272 27.2328 35.912 27.8408 35.192C28.4648 34.472 28.7768 33.512 28.7768 32.312C28.7768 31.72 28.6888 31.176 28.5128 30.68C27.5528 30.648 26.6808 30.456 25.8968 30.104C25.1288 29.752 24.5208 29.272 24.0728 28.664C23.4328 28.936 22.9288 29.4 22.5608 30.056C22.1928 30.696 22.0088 31.464 22.0088 32.36C22.0088 33.528 22.3128 34.472 22.9208 35.192C23.5448 35.912 24.3688 36.272 25.3928 36.272ZM36.5633 38.168C36.1633 38.168 35.8033 38.112 35.4833 38V30.344C35.4833 29.048 35.1153 28.4 34.3793 28.4C34.0273 28.4 33.5393 28.552 32.9153 28.856C32.2913 29.16 31.5793 29.592 30.7793 30.152C30.6353 30.248 30.4833 30.296 30.3233 30.296C30.0993 30.296 29.8753 30.168 29.6513 29.912C29.4273 29.656 29.3153 29.384 29.3153 29.096C29.3153 28.824 29.4513 28.6 29.7233 28.424C30.8593 27.672 31.7793 27.136 32.4833 26.816C33.1873 26.496 33.8833 26.336 34.5713 26.336C35.2593 26.336 35.8433 26.536 36.3233 26.936C36.8193 27.32 37.1713 27.856 37.3793 28.544C37.7473 27.84 38.2273 27.296 38.8193 26.912C39.4273 26.528 40.1073 26.336 40.8593 26.336C42.4273 26.336 43.4913 27.144 44.0513 28.76C44.4353 27.992 44.9553 27.4 45.6113 26.984C46.2673 26.552 47.0113 26.336 47.8433 26.336C48.9793 26.336 49.8513 26.696 50.4593 27.416C51.0673 28.136 51.3713 29.152 51.3713 30.464V33.8C51.3713 34.68 51.4833 35.312 51.7073 35.696C51.9473 36.08 52.3233 36.272 52.8353 36.272C53.0593 36.272 53.2273 36.368 53.3393 36.56C53.4673 36.752 53.5313 37.008 53.5313 37.328C53.5313 37.584 53.4593 37.816 53.3153 38.024C53.1873 38.232 52.9713 38.336 52.6673 38.336C50.3473 38.336 49.1873 36.912 49.1873 34.064V30.992C49.1873 30.16 49.0353 29.52 48.7313 29.072C48.4273 28.624 47.9953 28.4 47.4353 28.4C46.5873 28.4 45.9153 28.888 45.4193 29.864C44.9393 30.824 44.6993 32.16 44.6993 33.872V38C44.5393 38.048 44.3633 38.088 44.1713 38.12C43.9793 38.152 43.7953 38.168 43.6193 38.168C43.2353 38.168 42.8673 38.112 42.5153 38V31.328C42.5153 30.384 42.3473 29.664 42.0113 29.168C41.6913 28.656 41.2113 28.4 40.5713 28.4C39.9953 28.4 39.4833 28.632 39.0353 29.096C38.6033 29.544 38.2593 30.184 38.0033 31.016C37.7633 31.832 37.6433 32.784 37.6433 33.872V38C37.4833 38.048 37.3073 38.088 37.1153 38.12C36.9233 38.152 36.7393 38.168 36.5633 38.168ZM52.8432 36.272C53.1792 36.272 53.5392 36.168 53.9232 35.96C54.3072 35.752 54.6672 35.432 55.0032 35C55.4032 34.456 55.6912 33.832 55.8672 33.128C56.0592 32.424 56.1792 31.712 56.2272 30.992V26.672C56.3712 26.624 56.5392 26.584 56.7312 26.552C56.9232 26.52 57.1232 26.504 57.3312 26.504C57.6992 26.504 58.0592 26.56 58.4112 26.672V33.584C58.4112 34.432 58.5392 35.096 58.7952 35.576C59.0672 36.04 59.5152 36.272 60.1392 36.272C60.3152 36.272 60.5072 36.232 60.7152 36.152C60.9232 36.072 61.1392 35.952 61.3632 35.792C61.6352 35.92 61.8592 36.144 62.0352 36.464C62.2112 36.768 62.2912 37.072 62.2752 37.376C62.0192 37.664 61.6912 37.896 61.2912 38.072C60.8912 38.248 60.4592 38.336 59.9952 38.336H59.9712C58.3072 38.336 57.2272 37.552 56.7312 35.984C56.5072 36.352 56.2672 36.664 56.0112 36.92C55.5792 37.352 55.0752 37.696 54.4992 37.952C53.9392 38.208 53.3312 38.336 52.6752 38.336C52.4512 38.336 52.2832 38.224 52.1712 38C52.0432 37.792 51.9792 37.56 51.9792 37.304C51.9792 37.032 52.0512 36.792 52.1952 36.584C52.3232 36.376 52.5392 36.272 52.8432 36.272ZM57.3552 23.216C56.9072 23.216 56.5232 23.056 56.2032 22.736C55.8832 22.416 55.7232 22.032 55.7232 21.584C55.7232 21.104 55.8752 20.712 56.1792 20.408C56.4992 20.104 56.8912 19.952 57.3552 19.952C57.8352 19.952 58.2272 20.104 58.5312 20.408C58.8352 20.712 58.9872 21.104 58.9872 21.584C58.9872 22.048 58.8272 22.44 58.5072 22.76C58.2032 23.064 57.8192 23.216 57.3552 23.216Z" fill="white"/>
</svg>
