<svg width="82" height="71" viewBox="0 0 82 71" fill="none" xmlns="http://www.w3.org/2000/svg">
<path d="M82.0004 7.32067V63.6774C81.9576 63.7792 81.8934 63.8743 81.872 63.9807C81.0483 68.032 78.2198 70.4719 74.3023 70.4968C72.8881 70.5058 71.4739 70.4968 70.0575 70.4968C49.3189 70.4968 28.5804 70.499 7.83968 70.4968C3.26749 70.4968 0.00897026 67.1652 0.00469118 62.4461C-0.00386697 44.4776 -0.00386697 26.5136 0.0218075 8.54966C0.0218075 7.63301 0.171575 6.68015 0.443297 5.81104C1.48739 2.47038 4.27521 0.499023 7.84396 0.499023C29.9433 0.499023 52.0447 0.499023 74.144 0.499023C74.358 0.499023 74.5719 0.499023 74.7837 0.508077C77.7342 0.668773 79.8887 2.16257 81.2173 4.93513C81.5725 5.6775 81.7437 6.51946 81.9983 7.31615L82.0004 7.32067ZM14.6413 67.061C14.6413 63.691 14.6413 60.4114 14.6413 57.1319C14.6413 54.5585 14.6242 51.9828 14.6477 49.4094C14.6712 46.8949 16.1625 45.3399 18.516 45.3332C20.2512 45.3286 21.9863 45.3309 23.7193 45.3332C26.2889 45.3354 27.7246 46.8564 27.7267 49.5905C27.731 55.079 27.7267 60.5653 27.7267 66.0539C27.7267 66.382 27.7267 66.7102 27.7267 67.0565H32.5214C32.5214 66.7057 32.5214 66.4024 32.5214 66.0991C32.5214 63.2134 32.5171 60.3277 32.5257 57.4442C32.5257 57.0232 32.5535 56.5955 32.6177 56.1813C32.8381 54.7486 33.681 53.7663 34.8043 52.9945C33.4329 49.4999 32.0828 46.0597 30.7328 42.6217C29.4982 39.4779 29.9283 37.4115 32.2347 35.0622C35.1103 32.1335 37.8168 29.0576 39.6012 25.2077C39.8814 24.6034 40.3607 24.2797 41.0154 24.2797C41.7022 24.2797 42.1579 24.6306 42.4874 25.253C43.0373 26.285 43.4994 27.4054 44.2076 28.2994C46.1417 30.7415 48.1379 33.1361 50.2004 35.4583C51.8971 37.3685 52.4213 39.6364 51.4927 42.0785C51.0156 43.3346 50.5149 44.584 50.0271 45.8356C49.0964 48.2325 48.1679 50.6293 47.2265 53.0488C48.9723 54.1488 49.5329 55.792 49.4922 57.8154C49.4345 60.5857 49.4773 63.3583 49.4773 66.1308V67.0362H53.9639C53.9639 66.6604 53.9639 66.3526 53.9639 66.0425C53.9639 61.9686 53.9211 57.8946 53.9981 53.8229C54.0152 52.9764 54.2805 51.9624 54.7812 51.34C55.3888 50.5841 55.5193 49.8643 55.4915 48.9748C55.438 47.1891 56.1762 45.8922 57.6738 45.0525C57.8878 44.9326 58.0953 44.5704 58.106 44.3124C58.1531 43.183 58.1167 42.0513 58.1296 40.9197C58.1424 39.7971 58.7586 39.0773 59.6914 39.0592C60.6521 39.0411 61.3089 39.7835 61.326 40.9401C61.3432 42.0423 61.3517 43.1468 61.3196 44.249C61.3068 44.7085 61.4373 44.9461 61.8438 45.1408C62.8729 45.6342 63.5768 46.4942 63.8122 47.6621C63.9598 48.3977 63.8849 49.1808 63.9534 49.939C63.9791 50.2219 64.054 50.5773 64.2337 50.7516C65.1729 51.6614 65.5067 52.7817 65.5003 54.0967C65.4789 58.1141 65.4939 62.1293 65.4939 66.1467C65.4939 66.4477 65.4939 66.7464 65.4939 67.1063C68.4528 67.1063 71.3027 67.1108 74.1547 67.1063C77.0624 67.1018 78.7954 65.2753 78.7954 62.2108C78.7975 49.5384 78.7954 36.8661 78.7954 24.1915C78.7954 23.8927 78.7954 23.5962 78.7954 23.2997H3.20544C3.20544 23.6437 3.20544 23.947 3.20544 24.2503C3.20544 36.8661 3.20544 49.4818 3.20544 62.0998C3.20544 62.3828 3.19902 62.6657 3.21828 62.9486C3.35307 64.9946 4.8914 66.923 6.78489 67.0271C9.3609 67.1697 11.9476 67.0633 14.6413 67.0633V67.061ZM3.21614 19.7938H78.7847C78.7847 15.8262 78.7847 11.922 78.7825 8.02004C78.7825 7.87971 78.7547 7.73939 78.729 7.60133C78.2969 5.26784 76.6109 3.89401 74.1504 3.89401C52.049 3.89401 29.9497 3.89401 7.84824 3.89401C7.63429 3.89401 7.42033 3.89401 7.20852 3.90532C5.11819 4.00717 3.28247 5.79972 3.23754 8.0223C3.16051 11.922 3.21614 15.8262 3.21614 19.7961V19.7938ZM39.4 52.4468C39.4 49.7059 39.3936 46.9944 39.4043 44.2852C39.4086 43.1196 40.0547 42.3976 41.0325 42.4157C41.9739 42.4316 42.5901 43.14 42.5986 44.2671C42.6115 46.3019 42.6029 48.3388 42.6029 50.3736C42.6029 51.0729 42.6029 51.7746 42.6029 52.5939C43.202 52.3947 43.8353 52.9085 44.1755 52.019C45.6154 48.2528 47.0917 44.5003 48.5466 40.7409C48.9681 39.6522 48.7541 38.7016 47.9496 37.8891C47.2735 37.2056 46.5739 36.5447 45.9577 35.8046C44.2696 33.7766 42.6222 31.7125 40.9384 29.6393C40.9298 29.6506 40.8335 29.7411 40.7629 29.852C38.8972 32.7695 36.6464 35.3293 34.233 37.7397C33.174 38.7967 33.0114 39.5866 33.5655 41.0012C34.9455 44.5206 36.364 48.022 37.6884 51.5641C38.0307 52.4785 38.4822 52.7433 39.4022 52.4513L39.4 52.4468ZM46.2787 67.0769V66.244C46.2787 63.3334 46.2787 60.425 46.2787 57.5144C46.2787 56.2492 46.0048 55.9459 44.8323 55.9436C42.2734 55.9368 39.7145 55.9368 37.1557 55.9436C36.0153 55.9459 35.7264 56.2537 35.7243 57.4442C35.72 60.4114 35.7222 63.3764 35.7243 66.3436C35.7243 66.5857 35.7543 66.8257 35.7714 67.0792H46.2765L46.2787 67.0769ZM24.5238 67.0656C24.5238 66.0674 24.5238 65.1666 24.5238 64.2636C24.5238 59.402 24.5238 54.5381 24.5238 49.6765C24.5238 49.1763 24.5645 48.7055 23.8584 48.7146C22.0719 48.7395 20.2832 48.7032 18.4989 48.7485C18.2785 48.753 17.9105 49.0722 17.8805 49.2849C17.7971 49.9119 17.8506 50.5592 17.8506 51.254C18.608 51.254 19.2456 51.245 19.8832 51.254C20.9936 51.2721 21.7125 51.9262 21.7253 52.9153C21.7403 53.936 20.9979 54.6241 19.8489 54.6422C19.2135 54.6513 18.578 54.6422 17.9126 54.6422V56.7358C18.6743 56.7358 19.3654 56.7109 20.0565 56.7426C21.0385 56.7856 21.7167 57.4917 21.7253 58.4287C21.7339 59.3952 21.0257 60.0991 19.9987 60.124C19.314 60.1398 18.6272 60.1262 17.9105 60.1262V62.2583C18.6144 62.2583 19.2498 62.247 19.8874 62.2605C21.0085 62.2854 21.7167 62.935 21.7274 63.9263C21.7403 64.9471 21.0064 65.6238 19.8468 65.6465C19.2135 65.6578 18.578 65.6465 17.9041 65.6465V67.0565H24.5238V67.0656ZM62.291 67.061C62.291 62.6023 62.2867 58.2499 62.2974 53.8976C62.2974 53.377 62.0428 53.3001 61.6384 53.3023C60.4103 53.3159 59.1822 53.3453 57.9563 53.291C57.2951 53.2616 57.1518 53.5219 57.1561 54.1714C57.1796 58.2431 57.1668 62.3171 57.1711 66.3888C57.1711 66.6061 57.2031 66.8234 57.2224 67.061H62.291ZM60.8254 49.8711C60.712 49.2827 60.7655 48.4928 60.4745 48.3049C60.083 48.0514 59.3042 48.0695 58.9212 48.3388C58.6409 48.5358 58.7308 49.3234 58.6516 49.8711H60.8254Z" fill="#019A6C"/>
<path d="M24.4297 7.26856C27.1062 7.26403 29.28 9.54999 29.2864 12.3769C29.2929 15.1857 27.1041 17.5056 24.4425 17.5101C21.7831 17.5146 19.59 15.2015 19.5858 12.3905C19.5815 9.5681 21.7531 7.27309 24.4297 7.26856ZM24.4532 10.6681C23.5567 10.659 22.8165 11.4082 22.7951 12.3452C22.7715 13.3003 23.5482 14.1242 24.4596 14.1106C25.339 14.097 26.0793 13.3048 26.0793 12.3791C26.0793 11.4444 25.3454 10.6749 24.4532 10.6658V10.6681Z" fill="#115B59"/>
<path d="M16.2074 12.4087C16.1968 15.2492 14.0422 17.517 11.3593 17.5079C8.68911 17.4989 6.54957 15.2016 6.55598 12.3566C6.56454 9.51616 8.72334 7.25284 11.4085 7.26642C14.0979 7.28 16.2181 9.55011 16.2074 12.4087ZM9.76101 12.3634C9.75246 13.3276 10.4628 14.0994 11.3635 14.1107C12.275 14.122 12.9896 13.3751 13.0003 12.4042C13.011 11.4264 12.322 10.6795 11.402 10.6705C10.482 10.6614 9.76957 11.3947 9.76315 12.3657L9.76101 12.3634Z" fill="#115B59"/>
<path d="M37.4722 7.26638C40.1616 7.25733 42.3055 9.51613 42.3097 12.3656C42.3162 15.2129 40.1766 17.4989 37.5001 17.5056C34.8256 17.5124 32.6625 15.231 32.6583 12.3973C32.654 9.54781 34.785 7.27317 37.4722 7.26638ZM39.1026 12.4019C39.1111 11.4241 38.4222 10.6772 37.5022 10.6682C36.5822 10.6591 35.8719 11.3947 35.8633 12.3634C35.8569 13.3276 36.5651 14.0994 37.468 14.1084C38.3794 14.1175 39.094 13.3706 39.1026 12.3996V12.4019Z" fill="#115B59"/>
<path d="M40.9618 40.2157C40.1103 40.1908 39.3978 39.4032 39.4064 38.4956C39.4149 37.5405 40.1638 36.7981 41.0795 36.8411C41.9503 36.8819 42.6307 37.6582 42.5964 38.5771C42.5643 39.4779 41.8048 40.2384 40.9618 40.2135V40.2157Z" fill="#115B59"/>
</svg>
