<svg width="90" height="90" viewBox="0 0 90 90" fill="none" xmlns="http://www.w3.org/2000/svg">
<path d="M74.7036 0C75.6547 0.517945 75.9576 1.3101 75.9529 2.39052C75.9177 9.53863 75.9341 16.6844 75.9341 23.8325C75.9341 24.0669 75.9458 24.3036 75.9224 24.5356C75.8331 25.4942 75.1122 26.1808 74.1941 26.1902C73.2407 26.1996 72.4752 25.4918 72.4306 24.4864C72.3906 23.5513 72.4165 22.6115 72.4165 21.674C72.4165 18.8335 72.4165 15.993 72.4165 13.0799H17.6417V17.9172H18.6866C31.4586 17.9172 44.2283 17.9172 57.0003 17.9172C58.8836 17.9172 59.412 18.4398 59.412 20.3053C59.412 28.3323 59.412 36.3569 59.412 44.3839C59.412 46.1956 58.8578 46.758 57.0637 46.758C44.2917 46.758 31.522 46.758 18.75 46.758C18.4025 46.758 18.0526 46.758 17.6417 46.758V86.4289H72.3742V80.537H71.2353C58.522 80.537 45.811 80.537 33.0977 80.537C31.0524 80.537 30.5874 80.0636 30.5874 77.9871C30.5874 69.9906 30.5874 61.9941 30.5874 53.9976C30.5874 52.275 31.1769 51.6938 32.9239 51.6938C45.696 51.6938 58.4656 51.6938 71.2376 51.6938H72.4212C72.4212 51.3492 72.4212 51.0399 72.4212 50.7329C72.4212 47.3346 72.4165 43.9363 72.4235 40.5403C72.4235 39.4904 72.872 38.8295 73.7127 38.5811C74.8727 38.2365 75.9247 39.1131 75.9318 40.4724C75.9458 43.8707 75.9365 47.269 75.9365 50.6649C75.9365 50.9789 75.9365 51.293 75.9365 51.6961C76.8311 51.6961 77.6436 51.6961 78.4561 51.6961C81.5018 51.6961 84.5498 51.7289 87.5954 51.6773C88.6686 51.6586 89.467 51.9773 90 52.9124V79.2784C89.5257 80.2721 88.7273 80.5698 87.6518 80.5581C84.0895 80.5135 80.5273 80.5417 76.965 80.5417C76.6527 80.5417 76.3404 80.5417 75.9365 80.5417C75.9365 82.965 75.8942 85.2946 75.9552 87.6195C75.9834 88.6999 75.65 89.4827 74.706 90.0006H15.2911C14.34 89.4827 14.0395 88.6929 14.0418 87.6124C14.07 74.3474 14.0606 61.0824 14.0606 47.8174V46.7604C10.0123 46.7604 6.09072 46.7627 2.17153 46.7604C0.616997 46.7604 0.00176117 46.1346 0.00176117 44.5644C-0.000587057 36.3944 -0.000587057 28.2245 0.00176117 20.0546C0.00176117 18.5453 0.624042 17.9265 2.13865 17.9242C5.41913 17.9195 8.69726 17.9242 11.9777 17.9242C12.6446 17.9242 13.3092 17.9242 14.0606 17.9242V16.893C14.0606 12.0604 14.0864 7.23014 14.0418 2.39755C14.0324 1.31713 14.3377 0.524976 15.2911 0.00937457H74.7036V0ZM3.55463 43.1793H55.8286V21.4795H3.55463V43.1793ZM34.1403 76.9559H86.4096V55.2561H34.1403V76.9559ZM58.4891 3.56468H17.637V9.42848H58.4891V3.56468ZM72.3812 3.57874H62.1195V9.44723H72.3812V3.57874Z" fill="#019A6C"/>
<path d="M75.9275 32.2885C75.9509 33.2517 75.1385 34.086 74.1757 34.086C73.2481 34.086 72.4497 33.3033 72.4263 32.3728C72.4028 31.4377 73.1519 30.6315 74.0912 30.587C75.0657 30.5401 75.904 31.3159 75.9275 32.2885Z" fill="#115B59"/>
<path d="M16.3406 26.3532C18.3013 26.3532 20.2598 26.3462 22.2205 26.3556C23.606 26.3626 24.2494 27.0118 24.2541 28.4086C24.2635 31.0124 24.2635 33.6138 24.2541 36.2176C24.2494 37.6472 23.5943 38.2988 22.143 38.3011C18.2826 38.3081 14.4221 38.3081 10.5592 38.3011C9.10568 38.2988 8.44348 37.6496 8.43878 36.227C8.42939 33.6232 8.43174 31.0218 8.43878 28.418C8.44348 26.9837 9.08455 26.3579 10.5498 26.3532C12.4801 26.3462 14.4103 26.3532 16.3406 26.3532ZM20.6918 34.7482V29.9226H12.0175V34.7482H20.6918Z" fill="#115B59"/>
<path d="M40.093 29.8663C37.2846 29.8663 34.4784 29.8663 31.6699 29.8663C31.4351 29.8663 31.2003 29.8757 30.9678 29.8617C29.9111 29.7913 29.1691 29.0437 29.1855 28.0735C29.1996 27.0915 29.9416 26.3743 31.0242 26.3603C32.6327 26.3392 34.2412 26.3532 35.8498 26.3532C39.9733 26.3532 44.0968 26.3532 48.2203 26.3532C50.1505 26.3532 50.9888 26.8946 50.9677 28.1274C50.9465 29.325 50.1035 29.8663 48.2531 29.8663C45.5339 29.8663 42.8146 29.8663 40.093 29.8663Z" fill="#115B59"/>
<path d="M40.1188 34.7927C43.1316 34.7927 46.1444 34.781 49.1548 34.7997C50.228 34.8067 50.9677 35.5497 50.9677 36.5363C50.9677 37.4738 50.2538 38.2097 49.2464 38.2964C49.0139 38.3152 48.7791 38.3058 48.5443 38.3058C42.8991 38.3058 37.2563 38.3058 31.6112 38.3058C31.4351 38.3058 31.259 38.3105 31.0852 38.3058C29.9604 38.2613 29.1878 37.5418 29.1855 36.5434C29.1855 35.5286 29.944 34.8044 31.0805 34.7997C34.0933 34.7856 37.1037 34.795 40.1165 34.7974L40.1188 34.7927Z" fill="#115B59"/>
<path d="M46.9008 72.078C44.94 72.078 42.9816 72.0873 41.0208 72.0756C39.6894 72.0686 39.0319 71.4077 39.0248 70.0718C39.0131 67.4399 39.0154 64.808 39.0248 62.1737C39.0295 60.8004 39.6988 60.1324 41.0842 60.1301C44.9752 60.1207 48.8639 60.1207 52.7549 60.1301C54.185 60.1324 54.8355 60.7957 54.8402 62.237C54.8472 64.8408 54.8495 67.4422 54.8402 70.046C54.8355 71.4264 54.178 72.0686 52.7808 72.0756C50.82 72.085 48.8616 72.0756 46.9008 72.0756V72.078ZM42.5777 68.4992H51.2521V63.6901H42.5777V68.4992Z" fill="#115B59"/>
<path d="M70.653 63.6456C67.7294 63.6456 64.8036 63.6503 61.88 63.6456C60.5791 63.6433 59.7948 62.9965 59.7713 61.9324C59.7478 60.8497 60.5791 60.1349 61.8988 60.1349C67.7482 60.1302 73.5977 60.1302 79.4448 60.1349C80.7316 60.1349 81.53 60.8052 81.5535 61.8621C81.577 62.9543 80.7645 63.6433 79.4283 63.6456C76.5048 63.6503 73.5789 63.6456 70.6553 63.6456H70.653Z" fill="#115B59"/>
<path d="M70.6717 72.0829C67.7482 72.0829 64.8223 72.0852 61.8987 72.0829C60.5555 72.0829 59.7501 71.3986 59.7712 70.3017C59.7924 69.2518 60.6001 68.5721 61.8776 68.5721C67.7552 68.5674 73.6328 68.5674 79.5128 68.5721C80.6634 68.5721 81.4102 69.1557 81.5417 70.1049C81.6567 70.9251 81.1284 71.7712 80.3112 71.9985C80.0083 72.0829 79.6748 72.0806 79.3555 72.0806C76.4601 72.0852 73.5647 72.0829 70.6694 72.0829H70.6717Z" fill="#115B59"/>
</svg>
